<?xml version="1.0" encoding="UTF-8"?>
<!DOCTYPE svg PUBLIC "-//W3C//DTD SVG 1.1//EN" "http://www.w3.org/Graphics/SVG/1.1/DTD/svg11.dtd">
<svg xmlns="http://www.w3.org/2000/svg" version="1.1" width="336px" height="123px" style="shape-rendering:geometricPrecision; text-rendering:geometricPrecision; image-rendering:optimizeQuality; fill-rule:evenodd; clip-rule:evenodd" xmlns:xlink="http://www.w3.org/1999/xlink">
<g><path style="opacity:0.866" fill="#41b38a" d="M 99.5,-0.5 C 100.167,-0.5 100.833,-0.5 101.5,-0.5C 103.676,1.51523 106.176,3.1819 109,4.5C 109.667,6.16667 109.667,7.83333 109,9.5C 97.337,30.8347 84.6703,51.5014 71,71.5C 70.5003,78.8258 70.3337,86.1591 70.5,93.5C 66.8333,93.5 63.1667,93.5 59.5,93.5C 59.6663,86.4921 59.4996,79.4921 59,72.5C 52.9688,63.2996 47.1355,53.9663 41.5,44.5C 45.8333,43.1667 50.1667,43.1667 54.5,44.5C 58.1995,50.3703 61.6995,56.3703 65,62.5C 75.9831,41.1992 87.4831,20.1992 99.5,-0.5 Z"/></g>
<g><path style="opacity:0.921" fill="#41b38a" d="M -0.5,80.5 C -0.5,79.5 -0.5,78.5 -0.5,77.5C 3.09907,76.6561 6.76574,76.3227 10.5,76.5C 11.372,82.3776 14.872,85.3776 21,85.5C 25.7179,85.4051 28.8846,83.2384 30.5,79C 29.8993,77.395 28.8993,76.0616 27.5,75C 21.8788,73.178 16.2121,71.5114 10.5,70C 1.49926,64.9927 -0.667409,57.826 4,48.5C 8.24945,43.7485 13.5828,41.7485 20,42.5C 32.0354,41.4011 38.5354,46.7344 39.5,58.5C 35.774,58.8226 32.1073,58.4892 28.5,57.5C 25.3286,51.7212 20.662,50.2212 14.5,53C 12.3985,54.7328 12.0652,56.7328 13.5,59C 18.6235,61.2819 23.9568,62.9485 29.5,64C 40.6948,68.5839 43.8615,76.4172 39,87.5C 36.2217,90.8071 32.7217,92.9738 28.5,94C 22.0983,94.8176 15.765,94.4842 9.5,93C 4.4341,90.1129 1.10076,85.9463 -0.5,80.5 Z"/></g>
<g><path style="opacity:0.921" fill="#059669" d="M 105.5,53.5 C 113.206,52.6646 120.539,53.8312 127.5,57C 131.023,60.3975 132.689,64.5642 132.5,69.5C 128.774,69.8226 125.107,69.4892 121.5,68.5C 118.329,62.7212 113.662,61.2212 107.5,64C 105.398,65.7328 105.065,67.7328 106.5,70C 111.624,72.2819 116.957,73.9485 122.5,75C 133.695,79.5839 136.861,87.4172 132,98.5C 127.178,103.775 121.178,106.109 114,105.5C 102.364,106.531 95.1975,101.364 92.5,90C 92.9054,89.0546 93.572,88.3879 94.5,88C 97.4816,87.502 100.482,87.3354 103.5,87.5C 104.372,93.3776 107.872,96.3776 114,96.5C 118.718,96.4051 121.885,94.2384 123.5,90C 122.899,88.395 121.899,87.0616 120.5,86C 114.108,84.1527 107.775,82.1527 101.5,80C 92.6423,72.4374 92.3089,64.4374 100.5,56C 102.315,55.2432 103.981,54.4098 105.5,53.5 Z"/></g>
<g><path style="opacity:0.925" fill="#059669" d="M 335.5,72.5 C 335.5,77.1667 335.5,81.8333 335.5,86.5C 330.572,102.142 319.906,108.309 303.5,105C 291.317,100.963 285.65,92.4627 286.5,79.5C 286.996,59.2336 297.329,50.7336 317.5,54C 327.089,56.7546 333.089,62.9212 335.5,72.5 Z M 308.5,62.5 C 319.247,62.9163 324.58,68.583 324.5,79.5C 323.734,93.8002 316.734,98.6335 303.5,94C 299.068,90.2094 297.068,85.3761 297.5,79.5C 296.937,70.931 300.604,65.2643 308.5,62.5 Z"/></g>
<g><path style="opacity:0.939" fill="#059669" d="M 135.5,54.5 C 149.167,54.5 162.833,54.5 176.5,54.5C 176.5,57.1667 176.5,59.8333 176.5,62.5C 171.5,62.5 166.5,62.5 161.5,62.5C 161.5,76.5 161.5,90.5 161.5,104.5C 157.833,104.5 154.167,104.5 150.5,104.5C 150.5,90.5 150.5,76.5 150.5,62.5C 145.5,62.5 140.5,62.5 135.5,62.5C 135.5,59.8333 135.5,57.1667 135.5,54.5 Z"/></g>
<g><path style="opacity:0.921" fill="#059669" d="M 178.5,54.5 C 182.167,54.5 185.833,54.5 189.5,54.5C 189.333,67.1711 189.5,79.8377 190,92.5C 195.842,99.0898 201.508,99.0898 207,92.5C 207.5,79.8377 207.667,67.1711 207.5,54.5C 211.167,54.5 214.833,54.5 218.5,54.5C 218.949,68.9058 218.449,83.2391 217,97.5C 212.492,103.733 206.325,106.4 198.5,105.5C 190.266,106.596 184.099,103.596 180,96.5C 178.553,82.5729 178.053,68.5729 178.5,54.5 Z"/></g>
<g><path style="opacity:0.941" fill="#059669" d="M 225.5,54.5 C 234.839,54.3335 244.173,54.5002 253.5,55C 264.358,59.7038 269.025,68.0371 267.5,80C 268.812,92.0595 263.812,100.06 252.5,104C 243.506,104.5 234.506,104.666 225.5,104.5C 225.5,87.8333 225.5,71.1667 225.5,54.5 Z M 236.5,62.5 C 250.562,59.8291 257.229,65.4958 256.5,79.5C 257.213,93.5097 250.546,99.1764 236.5,96.5C 236.5,85.1667 236.5,73.8333 236.5,62.5 Z"/></g>
<g><path style="opacity:0.921" fill="#059669" d="M 271.5,54.5 C 275.167,54.5 278.833,54.5 282.5,54.5C 282.5,71.1667 282.5,87.8333 282.5,104.5C 278.833,104.5 275.167,104.5 271.5,104.5C 271.5,87.8333 271.5,71.1667 271.5,54.5 Z"/></g>
<g><path style="opacity:0.963" fill="#41b38a" d="M 160.5,122.5 C 132.167,122.5 103.833,122.5 75.5,122.5C 75.5,105.833 75.5,89.1667 75.5,72.5C 79.1667,72.5 82.8333,72.5 86.5,72.5C 86.5,86.5 86.5,100.5 86.5,114.5C 111.167,114.5 135.833,114.5 160.5,114.5C 160.5,117.167 160.5,119.833 160.5,122.5 Z"/></g>
</svg>
